<?xml version="1.0" encoding="UTF-8" standalone="no"?>
<!DOCTYPE svg PUBLIC "-//W3C//DTD SVG 1.1//EN" "http://www.w3.org/Graphics/SVG/1.1/DTD/svg11.dtd">
<svg width="100%" height="100%" viewBox="0 0 887 324" version="1.1" xmlns="http://www.w3.org/2000/svg" xmlns:xlink="http://www.w3.org/1999/xlink" xml:space="preserve" xmlns:serif="http://www.serif.com/" style="fill:white;fill-rule:evenodd;clip-rule:evenodd;stroke-linejoin:round;stroke-miterlimit:2;">
    <metadata>
        <rdf:RDF
           xmlns:rdf = "http://www.w3.org/1999/02/22-rdf-syntax-ns#"
           xmlns:dc = "http://purl.org/dc/elements/1.1/"
           xmlns:schema="http://schema.org/">
            <rdf:Description about="">
                <dc:creator>Takuro Okada</dc:creator>
                <schema:license rdf:resource="https://raw.githubusercontent.com/mill6-plat6aux/harmony/refs/heads/main/LICENSE"/>
            </rdf:Description>
        </rdf:RDF>
    </metadata>
    <g transform="matrix(1,0,0,1,-68.5778,-350.362)">
        <path d="M845.95,505.7L856.777,505.7L902.731,618.541L945.076,505.7L955.422,505.7L902.491,642.601C899.924,648.696 897.558,653.949 895.393,658.36C893.228,662.771 890.781,666.019 888.055,668.104C884.847,670.67 881.037,672.234 876.626,672.796C872.215,673.357 866.401,673.638 859.183,673.638L859.183,665.698C865.759,665.698 870.892,665.177 874.581,664.134C878.27,663.092 881.719,660.966 884.927,657.758C886.691,655.994 888.536,652.746 890.461,648.014C892.385,643.282 894.791,636.826 897.679,628.646L845.95,505.7ZM310.138,604.827L309.657,604.827C308.213,608.516 306.128,612.005 303.402,615.293C300.675,618.581 297.346,621.508 293.417,624.075C289.487,626.641 285.036,628.646 280.064,630.09C275.091,631.533 269.638,632.255 263.703,632.255C250.55,632.255 240.365,629.408 233.147,623.714C225.929,618.02 222.32,609.238 222.32,597.368C222.32,590.15 223.764,584.256 226.651,579.684C229.538,575.113 233.187,571.504 237.598,568.857C242.009,566.211 246.901,564.326 252.274,563.203C257.648,562.081 262.821,561.279 267.793,560.797L281.988,559.594C288.565,559.113 293.737,558.351 297.507,557.309C301.276,556.266 304.123,554.822 306.048,552.978C307.973,551.133 309.176,548.767 309.657,545.88C310.138,542.993 310.379,539.384 310.379,535.053C310.379,531.685 309.737,528.557 308.454,525.67C307.171,522.783 305.166,520.216 302.439,517.971C299.712,515.725 296.184,513.961 291.853,512.678C287.522,511.395 282.229,510.753 275.973,510.753C264.906,510.753 255.964,513.48 249.147,518.933C242.33,524.387 238.6,532.647 237.959,543.715L228.816,543.715C229.458,530.081 233.829,519.856 241.929,513.039C250.029,506.222 261.537,502.813 276.455,502.813C291.372,502.813 302.239,505.74 309.056,511.595C315.873,517.45 319.281,525.109 319.281,534.572L319.281,606.511C319.281,608.275 319.321,610.04 319.401,611.804C319.481,613.568 319.762,615.172 320.243,616.616C320.725,618.06 321.527,619.223 322.649,620.105C323.772,620.987 325.376,621.428 327.461,621.428C329.065,621.428 331.311,621.187 334.198,620.706L334.198,628.405C331.792,629.047 329.306,629.368 326.74,629.368C323.05,629.368 320.123,628.887 317.958,627.924C315.792,626.962 314.148,625.679 313.025,624.075C311.903,622.471 311.141,620.586 310.74,618.421C310.339,616.255 310.138,613.889 310.138,611.323L310.138,604.827ZM601.021,567.534C601.021,558.712 602.264,550.412 604.751,542.632C607.237,534.853 610.886,527.996 615.698,522.061C620.51,516.126 626.444,511.435 633.502,507.986C640.56,504.537 648.66,502.813 657.802,502.813C666.945,502.813 675.045,504.537 682.103,507.986C689.16,511.435 695.095,516.126 699.907,522.061C704.719,527.996 708.368,534.853 710.854,542.632C713.34,550.412 714.584,558.712 714.584,567.534C714.584,576.356 713.34,584.697 710.854,592.556C708.368,600.416 704.719,607.273 699.907,613.127C695.095,618.982 689.16,623.634 682.103,627.082C675.045,630.531 666.945,632.255 657.802,632.255C648.66,632.255 640.56,630.531 633.502,627.082C626.444,623.634 620.51,618.982 615.698,613.127C610.886,607.273 607.237,600.416 604.751,592.556C602.264,584.697 601.021,576.356 601.021,567.534ZM415.52,505.7L424.663,505.7L424.663,530.963L425.144,530.963C426.107,527.114 427.791,523.465 430.197,520.016C432.603,516.567 435.53,513.56 438.979,510.994C442.427,508.427 446.277,506.422 450.527,504.979C454.778,503.535 459.229,502.813 463.88,502.813C469.815,502.813 474.948,503.575 479.279,505.099C483.609,506.623 487.299,508.628 490.346,511.114C493.394,513.6 495.8,516.407 497.564,519.535C499.329,522.663 500.531,525.83 501.173,529.038L501.654,529.038C505.343,520.377 510.276,513.841 516.451,509.43C522.626,505.019 530.767,502.813 540.872,502.813C546.486,502.813 551.659,503.655 556.39,505.339C561.122,507.024 565.212,509.59 568.661,513.039C572.109,516.487 574.796,520.858 576.721,526.151C578.646,531.444 579.608,537.7 579.608,544.918L579.608,629.368L570.465,629.368L570.465,544.677C570.465,536.818 569.262,530.642 566.856,526.151C564.45,521.66 561.603,518.252 558.315,515.926C555.027,513.6 551.739,512.156 548.451,511.595C545.162,511.034 542.636,510.753 540.872,510.753C535.258,510.753 530.085,511.715 525.353,513.64C520.621,515.565 516.531,518.452 513.083,522.302C509.634,526.151 506.947,530.923 505.023,536.617C503.098,542.311 502.135,548.848 502.135,556.226L502.135,629.368L492.993,629.368L492.993,544.677C492.993,536.978 491.83,530.843 489.504,526.272C487.178,521.7 484.452,518.292 481.324,516.046C478.196,513.801 474.988,512.357 471.7,511.715C468.412,511.074 465.805,510.753 463.88,510.753C459.55,510.753 455.058,511.635 450.407,513.4C445.755,515.164 441.505,517.891 437.655,521.58C433.806,525.269 430.678,530.001 428.272,535.775C425.866,541.549 424.663,548.366 424.663,556.226L424.663,629.368L415.52,629.368L415.52,505.7ZM68.578,457.581L79.164,457.581L79.164,535.535L188.877,535.535L188.877,457.581L199.463,457.581L199.463,629.368L188.877,629.368L188.877,544.677L79.164,544.677L79.164,629.368L68.578,629.368L68.578,457.581ZM357.536,533.129L358.258,533.129C359.381,529.119 361.426,525.349 364.393,521.82C367.36,518.292 370.969,515.244 375.22,512.678C379.471,510.111 384.202,508.146 389.415,506.783C394.628,505.42 400.042,504.818 405.656,504.979L405.656,514.121C400.844,513.48 395.35,513.961 389.175,515.565C382.999,517.169 377.105,520.698 371.491,526.151C369.245,528.557 367.28,530.883 365.596,533.129C363.912,535.374 362.508,537.86 361.386,540.587C360.263,543.314 359.381,546.361 358.739,549.73C358.097,553.098 357.696,557.108 357.536,561.76L357.536,629.368L348.393,629.368L348.393,505.7L357.536,505.7L357.536,533.129ZM735.997,505.7L745.139,505.7L745.139,532.166L745.621,532.166C747.225,527.515 749.51,523.384 752.478,519.775C755.445,516.166 758.894,513.079 762.823,510.512C766.753,507.946 771.044,506.021 775.695,504.738C780.347,503.455 785.079,502.813 789.891,502.813C797.109,502.813 803.244,503.695 808.296,505.46C813.349,507.224 817.479,509.55 820.687,512.437C823.895,515.324 826.422,518.572 828.266,522.181C830.111,525.79 831.434,529.439 832.236,533.129C833.038,536.818 833.519,540.387 833.68,543.835C833.84,547.284 833.92,550.291 833.92,552.858L833.92,629.368L824.777,629.368L824.777,551.173C824.777,548.126 824.537,544.276 824.056,539.625C823.574,534.973 822.171,530.522 819.845,526.272C817.519,522.021 813.991,518.372 809.259,515.324C804.527,512.277 797.991,510.753 789.65,510.753C782.593,510.753 776.337,512.036 770.883,514.603C765.43,517.169 760.778,520.738 756.929,525.309C753.079,529.88 750.152,535.334 748.147,541.67C746.142,548.006 745.139,554.943 745.139,562.482L745.139,629.368L735.997,629.368L735.997,505.7ZM310.138,559.113C307.893,561.84 304.484,563.684 299.913,564.647C295.341,565.609 290.249,566.331 284.635,566.812L269.237,568.256C264.745,568.737 260.254,569.419 255.763,570.301C251.272,571.183 247.222,572.667 243.613,574.752C240.004,576.837 237.077,579.684 234.831,583.293C232.585,586.902 231.463,591.594 231.463,597.368C231.463,606.511 234.35,613.288 240.124,617.699C245.899,622.11 253.838,624.315 263.943,624.315C274.369,624.315 282.63,622.431 288.725,618.661C294.82,614.892 299.472,610.561 302.68,605.669C305.888,600.777 307.933,596.045 308.815,591.474C309.697,586.902 310.138,583.815 310.138,582.211L310.138,559.113ZM610.164,567.534C610.164,574.912 611.207,582.01 613.292,588.827C615.377,595.644 618.425,601.699 622.434,606.992C626.444,612.285 631.417,616.496 637.352,619.624C643.286,622.751 650.103,624.315 657.802,624.315C665.502,624.315 672.318,622.751 678.253,619.624C684.188,616.496 689.16,612.285 693.17,606.992C697.18,601.699 700.228,595.644 702.313,588.827C704.398,582.01 705.441,574.912 705.441,567.534C705.441,560.156 704.398,553.058 702.313,546.241C700.228,539.424 697.18,533.369 693.17,528.076C689.16,522.783 684.188,518.572 678.253,515.445C672.318,512.317 665.502,510.753 657.802,510.753C650.103,510.753 643.286,512.317 637.352,515.445C631.417,518.572 626.444,522.783 622.434,528.076C618.425,533.369 615.377,539.424 613.292,546.241C611.207,553.058 610.164,560.156 610.164,567.534ZM132.914,384.623C133.106,381.415 133.908,378.753 135.32,376.636C136.731,374.518 138.528,372.818 140.709,371.535C142.891,370.252 145.345,369.337 148.071,368.792C150.798,368.247 153.541,367.974 156.3,367.974C158.802,367.974 161.336,368.15 163.903,368.503C166.469,368.856 168.811,369.546 170.928,370.572C173.046,371.599 174.778,373.027 176.125,374.855C177.473,376.684 178.146,379.106 178.146,382.121L178.146,408.009C178.146,410.255 178.275,412.404 178.531,414.458C178.788,416.511 179.237,418.05 179.878,419.077L166.02,419.077C165.763,418.307 165.555,417.521 165.394,416.719C165.234,415.917 165.122,415.099 165.058,414.265C162.876,416.511 160.31,418.083 157.359,418.981C154.407,419.879 151.392,420.328 148.312,420.328C145.938,420.328 143.725,420.039 141.672,419.462C139.618,418.885 137.822,417.986 136.282,416.767C134.742,415.548 133.539,414.008 132.673,412.148C131.807,410.287 131.374,408.074 131.374,405.507C131.374,402.684 131.871,400.358 132.866,398.53C133.86,396.701 135.143,395.242 136.715,394.151C138.287,393.06 140.084,392.242 142.105,391.697C144.126,391.152 146.163,390.719 148.216,390.398C150.269,390.077 152.29,389.82 154.279,389.628C156.268,389.435 158.032,389.147 159.572,388.762C161.112,388.377 162.331,387.815 163.229,387.077C164.127,386.34 164.544,385.265 164.48,383.853C164.48,382.378 164.24,381.207 163.758,380.341C163.277,379.475 162.636,378.801 161.834,378.32C161.032,377.839 160.101,377.518 159.043,377.357C157.984,377.197 156.845,377.117 155.626,377.117C152.932,377.117 150.814,377.694 149.274,378.849C147.735,380.004 146.836,381.929 146.58,384.623L132.914,384.623ZM463.688,397.519L499.585,397.519C499.842,393.67 499.521,389.981 498.623,386.452C497.725,382.923 496.265,379.779 494.244,377.02C492.223,374.262 489.64,372.064 486.497,370.428C483.353,368.792 479.664,367.974 475.429,367.974C471.644,367.974 468.195,368.648 465.083,369.995C461.972,371.342 459.293,373.187 457.047,375.529C454.802,377.871 453.07,380.645 451.85,383.853C450.631,387.061 450.022,390.526 450.022,394.247C450.022,398.097 450.615,401.626 451.802,404.834C452.989,408.042 454.674,410.8 456.855,413.11C459.036,415.42 461.699,417.2 464.843,418.451C467.987,419.703 471.515,420.328 475.429,420.328C481.075,420.328 485.887,419.045 489.865,416.479C493.843,413.912 496.794,409.646 498.719,403.679L486.689,403.679C486.24,405.219 485.021,406.678 483.032,408.058C481.043,409.437 478.669,410.127 475.91,410.127C472.061,410.127 469.109,409.132 467.056,407.143C465.003,405.154 463.88,401.946 463.688,397.519ZM429.138,412.725L429.138,419.077L442.13,419.077L442.13,350.362L428.464,350.362L428.464,375.384L428.272,375.384C426.732,372.946 424.631,371.102 421.968,369.851C419.306,368.6 416.499,367.974 413.547,367.974C409.89,367.974 406.682,368.696 403.923,370.139C401.165,371.583 398.871,373.492 397.042,375.866C395.214,378.239 393.834,380.982 392.904,384.094C391.974,387.206 391.509,390.43 391.509,393.766C391.509,397.231 391.974,400.567 392.904,403.775C393.834,406.983 395.214,409.822 397.042,412.292C398.871,414.762 401.197,416.719 404.02,418.163C406.843,419.606 410.115,420.328 413.836,420.328C417.108,420.328 420.043,419.735 422.642,418.548C425.24,417.361 427.342,415.42 428.946,412.725L429.138,412.725ZM206.056,369.321L206.056,354.404L192.39,354.404L192.39,369.321L184.113,369.321L184.113,378.464L192.39,378.464L192.39,407.817C192.39,410.319 192.807,412.34 193.641,413.88C194.475,415.42 195.614,416.607 197.057,417.441C198.501,418.275 200.169,418.836 202.062,419.125C203.954,419.414 205.959,419.558 208.077,419.558C209.424,419.558 210.803,419.526 212.215,419.462C213.626,419.398 214.91,419.269 216.064,419.077L216.064,408.491C215.423,408.619 214.749,408.715 214.043,408.779C213.338,408.844 212.6,408.876 211.83,408.876C209.52,408.876 207.98,408.491 207.21,407.721C206.441,406.951 206.056,405.411 206.056,403.101L206.056,378.464L216.064,378.464L216.064,369.321L206.056,369.321ZM70.743,350.362L70.743,419.077L85.853,419.077L85.853,394.44L101.732,394.44C106.031,394.44 109.688,393.814 112.704,392.563C115.719,391.312 118.173,389.66 120.066,387.607C121.959,385.554 123.338,383.196 124.204,380.533C125.07,377.871 125.503,375.16 125.503,372.401C125.503,369.578 125.07,366.851 124.204,364.221C123.338,361.59 121.959,359.248 120.066,357.195C118.173,355.142 115.719,353.49 112.704,352.239C109.688,350.988 106.031,350.362 101.732,350.362L70.743,350.362ZM312.111,369.321L312.111,419.077L325.777,419.077L325.777,369.321L312.111,369.321ZM507.669,369.321L507.669,419.077L521.335,419.077L521.335,396.653C521.335,394.408 521.56,392.323 522.009,390.398C522.458,388.473 523.212,386.789 524.27,385.345C525.329,383.902 526.725,382.763 528.457,381.929C530.189,381.095 532.306,380.678 534.809,380.678C535.643,380.678 536.509,380.726 537.407,380.822C538.305,380.918 539.075,381.03 539.717,381.159L539.717,368.455C538.626,368.134 537.632,367.974 536.733,367.974C535.001,367.974 533.333,368.231 531.729,368.744C530.125,369.257 528.617,369.979 527.206,370.909C525.794,371.84 524.543,372.962 523.452,374.278C522.362,375.593 521.496,377.02 520.854,378.56L520.662,378.56L520.662,369.321L507.669,369.321ZM222.609,350.362L222.609,419.077L236.275,419.077L236.275,392.996C236.275,387.928 237.109,384.287 238.777,382.073C240.445,379.86 243.14,378.753 246.861,378.753C250.133,378.753 252.411,379.763 253.694,381.784C254.977,383.805 255.619,386.869 255.619,390.975L255.619,419.077L269.285,419.077L269.285,388.473C269.285,385.393 269.012,382.586 268.467,380.052C267.921,377.518 266.975,375.368 265.628,373.604C264.28,371.84 262.436,370.46 260.094,369.466C257.752,368.471 254.753,367.974 251.096,367.974C248.529,367.974 245.899,368.632 243.204,369.947C240.509,371.262 238.296,373.363 236.563,376.251L236.275,376.251L236.275,350.362L222.609,350.362ZM282.662,378.464L282.662,419.077L296.328,419.077L296.328,378.464L305.759,378.464L305.759,369.321L296.328,369.321L296.328,366.338C296.328,364.285 296.729,362.825 297.531,361.959C298.333,361.093 299.664,360.66 301.525,360.66C303.257,360.66 304.925,360.756 306.529,360.949L306.529,350.747C305.374,350.683 304.187,350.603 302.968,350.507C301.749,350.41 300.53,350.362 299.311,350.362C293.729,350.362 289.559,351.774 286.8,354.597C284.041,357.42 282.662,361.045 282.662,365.472L282.662,369.321L274.482,369.321L274.482,378.464L282.662,378.464ZM336.556,369.321L336.556,419.077L350.222,419.077L350.222,392.996C350.222,387.928 351.056,384.287 352.724,382.073C354.392,379.86 357.087,378.753 360.808,378.753C364.08,378.753 366.358,379.763 367.641,381.784C368.924,383.805 369.566,386.869 369.566,390.975L369.566,419.077L383.232,419.077L383.232,388.473C383.232,385.393 382.959,382.586 382.414,380.052C381.869,377.518 380.922,375.368 379.575,373.604C378.228,371.84 376.383,370.46 374.041,369.466C371.699,368.471 368.7,367.974 365.043,367.974C362.156,367.974 359.333,368.632 356.574,369.947C353.815,371.262 351.569,373.363 349.837,376.251L349.548,376.251L349.548,369.321L336.556,369.321ZM164.48,394.728C163.903,395.242 163.181,395.643 162.315,395.931C161.449,396.22 160.518,396.461 159.524,396.653C158.529,396.846 157.487,397.006 156.396,397.134C155.305,397.263 154.215,397.423 153.124,397.616C152.097,397.808 151.087,398.065 150.092,398.386C149.098,398.706 148.232,399.139 147.494,399.685C146.756,400.23 146.163,400.92 145.714,401.754C145.264,402.588 145.04,403.647 145.04,404.93C145.04,406.149 145.264,407.175 145.714,408.009C146.163,408.844 146.772,409.501 147.542,409.982C148.312,410.464 149.21,410.8 150.237,410.993C151.263,411.185 152.322,411.282 153.413,411.282C156.107,411.282 158.193,410.833 159.668,409.934C161.144,409.036 162.235,407.961 162.94,406.71C163.646,405.459 164.079,404.192 164.24,402.909C164.4,401.626 164.48,400.599 164.48,399.829L164.48,394.728ZM428.946,394.055C428.946,396.108 428.753,398.097 428.368,400.022C427.983,401.946 427.342,403.663 426.443,405.17C425.545,406.678 424.342,407.881 422.834,408.779C421.327,409.678 419.45,410.127 417.204,410.127C415.087,410.127 413.275,409.662 411.767,408.731C410.259,407.801 409.008,406.582 408.014,405.074C407.019,403.566 406.297,401.85 405.848,399.925C405.399,398.001 405.174,396.076 405.174,394.151C405.174,392.098 405.383,390.125 405.8,388.232C406.217,386.34 406.891,384.655 407.821,383.18C408.751,381.704 409.986,380.517 411.526,379.619C413.066,378.721 414.959,378.272 417.204,378.272C419.45,378.272 421.311,378.721 422.786,379.619C424.262,380.517 425.465,381.688 426.395,383.132C427.326,384.575 427.983,386.243 428.368,388.136C428.753,390.029 428.946,392.002 428.946,394.055ZM485.919,388.858L463.688,388.858C463.752,387.895 463.961,386.805 464.313,385.586C464.666,384.367 465.276,383.212 466.142,382.121C467.008,381.03 468.163,380.116 469.607,379.378C471.05,378.64 472.863,378.272 475.044,378.272C478.38,378.272 480.867,379.17 482.503,380.966C484.139,382.763 485.278,385.393 485.919,388.858ZM85.853,382.699L85.853,362.103L97.594,362.103C99.326,362.103 100.994,362.232 102.598,362.488C104.202,362.745 105.614,363.242 106.833,363.98C108.052,364.718 109.03,365.76 109.768,367.108C110.506,368.455 110.875,370.22 110.875,372.401C110.875,374.582 110.506,376.347 109.768,377.694C109.03,379.041 108.052,380.084 106.833,380.822C105.614,381.56 104.202,382.057 102.598,382.314C100.994,382.57 99.326,382.699 97.594,382.699L85.853,382.699ZM325.777,361.622L325.777,350.362L312.111,350.362L312.111,361.622L325.777,361.622Z" style="fill-rule:nonzero;"/>
    </g>
</svg>
